<?xml version="1.0" encoding="UTF-8"?>
<!DOCTYPE svg PUBLIC "-//W3C//DTD SVG 1.1//EN" "http://www.w3.org/Graphics/SVG/1.1/DTD/svg11.dtd">
<!-- Creator: CorelDRAW 2020 (64-Bit) -->
<svg xmlns="http://www.w3.org/2000/svg" xml:space="preserve" width="1181px" height="380px" version="1.1" style="shape-rendering:geometricPrecision; text-rendering:geometricPrecision; image-rendering:optimizeQuality; fill-rule:evenodd; clip-rule:evenodd"
viewBox="0 0 1180.87 379.6"
 xmlns:xlink="http://www.w3.org/1999/xlink"
 xmlns:xodm="http://www.corel.com/coreldraw/odm/2003">
 <defs>
  <style type="text/css">
   <![CDATA[
    .fil0 {fill:#FF6060}
   ]]>
  </style>
 </defs>
 <g id="Layer_x0020_1">
  <metadata id="CorelCorpID_0Corel-Layer"/>
  <path class="fil0" d="M112.42 195.65l-63.11 65.39 0 91.04 -49.31 0 0 -352.08 49.31 0 0 196.66 187.36 -196.66 56.21 0 -147.43 158.44 156.79 193.64 -57.68 0 -132.14 -156.43zm664.64 159.44c-21.37,0 -41.91,-2.93 -61.63,-8.8 -19.73,-5.87 -35.18,-13.33 -46.35,-22.38l19.72 -38.23c11.51,8.39 25.48,15.09 41.91,20.12 16.44,5.03 33.04,7.55 49.8,7.55 41.42,0 62.13,-12.07 62.13,-36.22 0,-8.04 -2.8,-14.41 -8.39,-19.11 -5.58,-4.69 -12.57,-8.13 -20.95,-10.31 -8.38,-2.18 -20.3,-4.61 -35.75,-7.29 -21.04,-3.35 -38.21,-7.21 -51.52,-11.57 -13.32,-4.36 -24.74,-11.74 -34.27,-22.13 -9.53,-10.4 -14.3,-24.98 -14.3,-43.76 0,-24.14 9.86,-43.51 29.58,-58.09 19.73,-14.59 46.19,-21.88 79.39,-21.88 17.42,0 34.84,2.18 52.26,6.54 17.42,4.36 31.72,10.22 42.9,17.6l-20.22 38.23c-21.37,-14.09 -46.51,-21.13 -75.44,-21.13 -20.05,0 -35.33,3.36 -45.85,10.06 -10.52,6.71 -15.78,15.59 -15.78,26.66 0,8.72 2.96,15.59 8.88,20.62 5.91,5.03 13.23,8.72 21.94,11.07 8.71,2.34 20.95,5.03 36.73,8.04 21.04,3.69 38.05,7.63 51.03,11.82 12.99,4.2 24.08,11.32 33.28,21.38 9.21,10.06 13.81,24.14 13.81,42.25 0,24.14 -10.11,43.34 -30.32,57.59 -20.22,14.25 -47.75,21.37 -82.59,21.37zm291.89 -277.13c36.16,0 63.85,9.05 83.08,27.16 19.23,18.11 28.84,45.1 28.84,80.98l0 160.95 -44.86 0 0 -35.21c-7.89,12.41 -19.15,21.88 -33.78,28.42 -14.63,6.53 -31.96,9.8 -52.02,9.8 -29.25,0 -52.67,-7.21 -70.26,-21.62 -17.58,-14.42 -26.37,-33.37 -26.37,-56.84 0,-23.47 8.38,-42.33 25.14,-56.58 16.76,-14.25 43.39,-21.38 79.88,-21.38l74.94 0 0 -9.55c0,-20.79 -5.92,-36.72 -17.75,-47.79 -11.83,-11.06 -29.25,-16.59 -52.26,-16.59 -15.45,0 -30.57,2.59 -45.36,7.79 -14.8,5.2 -27.29,12.16 -37.48,20.88l-19.72 -36.22c13.48,-11.06 29.58,-19.53 48.32,-25.4 18.74,-5.87 38.62,-8.8 59.66,-8.8zm-10.85 234.88c18.08,0 33.7,-4.1 46.84,-12.32 13.15,-8.21 22.68,-19.87 28.6,-34.95l0 -37.22 -72.97 0c-40.1,0 -60.15,13.74 -60.15,41.24 0,13.41 5.09,23.97 15.28,31.69 10.19,7.71 24.32,11.56 42.4,11.56zm-719.41 -6.14l0 -110.22 66.74 -120.25 191.9 112.68 0 111.21 -14.21 8.29 0 -104.43 -53.98 -33.74 -56.24 100.47 0 101.99 -11.82 6.9 -122.39 -72.9zm175.45 41.62l32.29 -17.29 0 -72.6 -32.29 18.74 0 71.15z"/>
 </g>
</svg>
